<?xml version="1.0" encoding="UTF-8" standalone="no"?>
<!-- Created with Inkscape (http://www.inkscape.org/) -->

<svg
   xmlns:dc="http://purl.org/dc/elements/1.1/"
   xmlns:cc="http://creativecommons.org/ns#"
   xmlns:rdf="http://www.w3.org/1999/02/22-rdf-syntax-ns#"
   xmlns:svg="http://www.w3.org/2000/svg"
   xmlns="http://www.w3.org/2000/svg"
   xmlns:sodipodi="http://sodipodi.sourceforge.net/DTD/sodipodi-0.dtd"
   xmlns:inkscape="http://www.inkscape.org/namespaces/inkscape"
   width="64"
   height="64"
   id="svg2"
   version="1.1"
   inkscape:version="0.48.2 r9819"
   sodipodi:docname="matheye_icon.svg"
   inkscape:export-filename="/home/eric/git/matheye/static/facicon.ico.png"
   inkscape:export-xdpi="22.5"
   inkscape:export-ydpi="22.5">
  <defs
     id="defs4" />
  <sodipodi:namedview
     id="base"
     pagecolor="#ffffff"
     bordercolor="#666666"
     borderopacity="1.0"
     inkscape:pageopacity="0.0"
     inkscape:pageshadow="2"
     inkscape:zoom="5.6"
     inkscape:cx="26.060658"
     inkscape:cy="21.852706"
     inkscape:document-units="px"
     inkscape:current-layer="layer2"
     showgrid="false"
     showguides="true"
     inkscape:guide-bbox="true"
     inkscape:window-width="1678"
     inkscape:window-height="1029"
     inkscape:window-x="0"
     inkscape:window-y="19"
     inkscape:window-maximized="0" />
  <metadata
     id="metadata7">
    <rdf:RDF>
      <cc:Work
         rdf:about="">
        <dc:format>image/svg+xml</dc:format>
        <dc:type
           rdf:resource="http://purl.org/dc/dcmitype/StillImage" />
        <dc:title></dc:title>
      </cc:Work>
    </rdf:RDF>
  </metadata>
  <g
     inkscape:label="sqrt"
     inkscape:groupmode="layer"
     id="layer1"
     transform="translate(0,-988.36218)"
     style="display:none">
    <g
       style="font-size:12px;font-style:normal;font-weight:normal;line-height:125%;letter-spacing:0px;word-spacing:0px;fill:#000000;fill-opacity:1;stroke:none;font-family:Sans;-inkscape-font-specification:Sans"
       id="text2985">
      <path
         d="m 60.635306,991.94531 0.721466,1.13269 c 0,0 -33.865411,9.7838 -41.750333,22.214 -6.264927,9.8763 -2.596574,29.5446 -2.596574,29.5446 l -4.918869,2.8571 -7.8668031,-23.5291 -2.3828716,0.8579 -0.56586,-1.8822 5.3948212,-1.8681 5.1042155,15.4574 c 0,0 -1.443244,-14.3885 5.617709,-23.8034 10.147294,-13.52998 43.243099,-20.98089 43.243099,-20.98089 z"
         style="font-size:32px;font-variant:normal;font-stretch:normal;text-align:start;writing-mode:lr-tb;text-anchor:start;font-family:Serif;-inkscape-font-specification:Serif"
         id="path2990"
         inkscape:connector-curvature="0"
         sodipodi:nodetypes="ccscccccccsc" />
    </g>
  </g>
  <g
     inkscape:groupmode="layer"
     id="layer2"
     inkscape:label="angle">
    <path
       sodipodi:nodetypes="csccc"
       inkscape:connector-curvature="0"
       id="path3773"
       d="m 20.555055,16.971539 c -2.654172,4.96331 -4.136004,10.636293 -4.136004,16.658113 0,5.968812 1.468232,11.583564 4.078956,16.515493 L 49.050696,33.629652 z"
       style="fill:#ffffff;fill-opacity:1;stroke:none" />
    <path
       sodipodi:type="arc"
       style="fill:#009bff;fill-opacity:1;stroke:none"
       id="path3811"
       sodipodi:cx="23.549181"
       sodipodi:cy="44.049488"
       sodipodi:rx="2.841054"
       sodipodi:ry="11.364216"
       d="m 26.390235,44.049488 a 2.841054,11.364216 0 1 1 -5.682108,0 2.841054,11.364216 0 1 1 5.682108,0 z"
       transform="matrix(2.3111111,0,0,1.1222223,-30.997376,-15.864161)" />
    <path
       style="fill:#000000;fill-opacity:1;stroke:none"
       d="m 10.977633,4.7837881 -2.8437495,4.90625 9.5312495,5.5624999 c -2.784632,5.526495 -4.34375,11.763221 -4.34375,18.375 0,6.541673 1.55045,12.705771 4.28125,18.1875 l -4.71875,2.53125 1.836136,3.577252 42.733502,-25.557424 z m 9.5625,12.1874999 28.5,16.65625 -28.53125,16.53125 c -2.610724,-4.931929 -4.09375,-10.562438 -4.09375,-16.53125 0,-6.02182 1.470828,-11.69294 4.125,-16.65625 z"
       id="path3778"
       inkscape:connector-curvature="0"
       sodipodi:nodetypes="cccsccccccccsc" />
    <path
       transform="matrix(1.5333334,0,0,0.66083069,-14.764786,4.4599031)"
       d="m 26.390235,44.049488 a 2.841054,11.364216 0 1 1 -5.682108,0 2.841054,11.364216 0 1 1 5.682108,0 z"
       sodipodi:ry="11.364216"
       sodipodi:rx="2.841054"
       sodipodi:cy="44.049488"
       sodipodi:cx="23.549181"
       id="path3813"
       style="fill:#000000;fill-opacity:1;stroke:none"
       sodipodi:type="arc" />
    <path
       sodipodi:type="arc"
       style="fill:#ffffff;fill-opacity:1;stroke:none"
       id="path3815"
       sodipodi:cx="23.549181"
       sodipodi:cy="44.049488"
       sodipodi:rx="2.841054"
       sodipodi:ry="11.364216"
       d="m 26.390235,44.049488 a 2.841054,11.364216 0 1 1 -5.682108,0 2.841054,11.364216 0 1 1 5.682108,0 z"
       transform="matrix(1.2,0,0,0.2684363,-3.7945455,17.527896)" />
  </g>
</svg>
