<?xml version="1.0" encoding="UTF-8" standalone="no"?>
<!-- Created with Inkscape (http://www.inkscape.org/) -->

<svg
   xmlns:dc="http://purl.org/dc/elements/1.1/"
   xmlns:cc="http://creativecommons.org/ns#"
   xmlns:rdf="http://www.w3.org/1999/02/22-rdf-syntax-ns#"
   xmlns:svg="http://www.w3.org/2000/svg"
   xmlns="http://www.w3.org/2000/svg"
   xmlns:sodipodi="http://sodipodi.sourceforge.net/DTD/sodipodi-0.dtd"
   xmlns:inkscape="http://www.inkscape.org/namespaces/inkscape"
   width="64"
   height="64"
   id="svg2"
   version="1.1"
   inkscape:version="0.48.2 r9819"
   sodipodi:docname="matheye_icon.svg"
   inkscape:export-filename="/home/eric/git/matheye/static/img/favicon.png"
   inkscape:export-xdpi="22.5"
   inkscape:export-ydpi="22.5">
  <defs
     id="defs4" />
  <sodipodi:namedview
     id="base"
     pagecolor="#ffffff"
     bordercolor="#666666"
     borderopacity="1.0"
     inkscape:pageopacity="0.0"
     inkscape:pageshadow="2"
     inkscape:zoom="7.9195959"
     inkscape:cx="36.780865"
     inkscape:cy="40.150953"
     inkscape:document-units="px"
     inkscape:current-layer="layer2"
     showgrid="false"
     showguides="true"
     inkscape:guide-bbox="true"
     inkscape:window-width="1426"
     inkscape:window-height="513"
     inkscape:window-x="252"
     inkscape:window-y="19"
     inkscape:window-maximized="0" />
  <metadata
     id="metadata7">
    <rdf:RDF>
      <cc:Work
         rdf:about="">
        <dc:format>image/svg+xml</dc:format>
        <dc:type
           rdf:resource="http://purl.org/dc/dcmitype/StillImage" />
        <dc:title></dc:title>
      </cc:Work>
    </rdf:RDF>
  </metadata>
  <g
     inkscape:label="sqrt"
     inkscape:groupmode="layer"
     id="layer1"
     transform="translate(0,-988.36218)"
     style="display:none">
    <g
       style="font-size:12px;font-style:normal;font-weight:normal;line-height:125%;letter-spacing:0px;word-spacing:0px;fill:#000000;fill-opacity:1;stroke:none;font-family:Sans;-inkscape-font-specification:Sans"
       id="text2985">
      <path
         d="m 60.635306,991.94531 0.721466,1.13269 c 0,0 -33.865411,9.7838 -41.750333,22.214 -6.264927,9.8763 -2.596574,29.5446 -2.596574,29.5446 l -4.918869,2.8571 -7.8668031,-23.5291 -2.3828716,0.8579 -0.56586,-1.8822 5.3948212,-1.8681 5.1042155,15.4574 c 0,0 -1.443244,-14.3885 5.617709,-23.8034 10.147294,-13.52998 43.243099,-20.98089 43.243099,-20.98089 z"
         style="font-size:32px;font-variant:normal;font-stretch:normal;text-align:start;writing-mode:lr-tb;text-anchor:start;font-family:Serif;-inkscape-font-specification:Serif"
         id="path2990"
         inkscape:connector-curvature="0"
         sodipodi:nodetypes="ccscccccccsc" />
    </g>
  </g>
  <g
     inkscape:groupmode="layer"
     id="layer2"
     inkscape:label="angle">
    <path
       sodipodi:nodetypes="csccc"
       inkscape:connector-curvature="0"
       id="path3773"
       d="m 46.424531,15.254583 c 3.135803,5.863964 4.886531,12.566379 4.886531,19.680932 0,7.051926 -1.73466,13.685543 -4.819132,19.512431 L 12.758007,34.935515 z"
       style="fill:#ffffff;fill-opacity:1;stroke:none" />
    <path
       sodipodi:type="arc"
       style="fill:#009bff;fill-opacity:1;stroke:none"
       id="path3811"
       sodipodi:cx="23.549181"
       sodipodi:cy="44.049488"
       sodipodi:rx="2.841054"
       sodipodi:ry="11.364216"
       d="m 26.390235,44.049488 a 2.841054,11.364216 0 1 1 -5.682108,0 2.841054,11.364216 0 1 1 5.682108,0 z"
       transform="matrix(-3.0737248,0,0,1.2489709,112.56452,-20.301509)" />
    <path
       style="fill:#000000;fill-opacity:1;stroke:none"
       d="M 57.739892,0.85521667 61.099675,6.6517657 49.838864,13.223649 c 3.289938,6.529345 5.131976,13.897801 5.131976,21.709369 0,7.728738 -1.831797,15.011387 -5.058135,21.487843 L 55.48773,59.411437 53.318405,63.637826 2.8303868,33.442695 z M 46.44216,15.254287 12.770487,34.933018 46.479081,54.464064 c 3.084471,-5.826888 4.836611,-12.479121 4.836611,-19.531046 0,-7.114554 -1.737728,-13.814767 -4.873532,-19.678731 z"
       id="path3778"
       inkscape:connector-curvature="0"
       sodipodi:nodetypes="cccsccccccccsc" />
    <path
       transform="matrix(-2.0619477,0,0,0.87103293,91.017852,-3.5642478)"
       d="m 26.390235,44.049488 a 2.841054,11.364216 0 1 1 -5.682108,0 2.841054,11.364216 0 1 1 5.682108,0 z"
       sodipodi:ry="11.364216"
       sodipodi:rx="2.841054"
       sodipodi:cy="44.049488"
       sodipodi:cx="23.549181"
       id="path3813"
       style="fill:#000000;fill-opacity:1;stroke:none"
       sodipodi:type="arc" />
    <path
       sodipodi:type="arc"
       style="fill:#ffffff;fill-opacity:1;stroke:none"
       id="path3868"
       sodipodi:cx="37.94643"
       sodipodi:cy="29.714285"
       sodipodi:rx="3.5714285"
       sodipodi:ry="3.5714285"
       d="m 41.517859,29.714285 a 3.5714285,3.5714285 0 1 1 -7.142857,0 3.5714285,3.5714285 0 1 1 7.142857,0 z"
       transform="translate(0,0.08928571)" />
  </g>
</svg>
