<?xml version="1.0" encoding="UTF-8" standalone="no"?>
<!-- Created with Inkscape (http://www.inkscape.org/) -->

<svg
   xmlns:dc="http://purl.org/dc/elements/1.1/"
   xmlns:cc="http://creativecommons.org/ns#"
   xmlns:rdf="http://www.w3.org/1999/02/22-rdf-syntax-ns#"
   xmlns:svg="http://www.w3.org/2000/svg"
   xmlns="http://www.w3.org/2000/svg"
   xmlns:sodipodi="http://sodipodi.sourceforge.net/DTD/sodipodi-0.dtd"
   xmlns:inkscape="http://www.inkscape.org/namespaces/inkscape"
   width="64"
   height="64"
   id="svg2"
   version="1.1"
   inkscape:version="0.48.2 r9819"
   sodipodi:docname="matheye_icon.svg"
   inkscape:export-filename="/home/eric/git/matheye/static/img/favicon.png"
   inkscape:export-xdpi="22.5"
   inkscape:export-ydpi="22.5">
  <defs
     id="defs4" />
  <sodipodi:namedview
     id="base"
     pagecolor="#ffffff"
     bordercolor="#666666"
     borderopacity="1.0"
     inkscape:pageopacity="0.0"
     inkscape:pageshadow="2"
     inkscape:zoom="5.6"
     inkscape:cx="47.222751"
     inkscape:cy="37.481035"
     inkscape:document-units="px"
     inkscape:current-layer="layer2"
     showgrid="false"
     showguides="true"
     inkscape:guide-bbox="true"
     inkscape:window-width="1678"
     inkscape:window-height="1029"
     inkscape:window-x="0"
     inkscape:window-y="19"
     inkscape:window-maximized="0" />
  <metadata
     id="metadata7">
    <rdf:RDF>
      <cc:Work
         rdf:about="">
        <dc:format>image/svg+xml</dc:format>
        <dc:type
           rdf:resource="http://purl.org/dc/dcmitype/StillImage" />
        <dc:title />
      </cc:Work>
    </rdf:RDF>
  </metadata>
  <g
     inkscape:label="sqrt"
     inkscape:groupmode="layer"
     id="layer1"
     transform="translate(0,-988.36218)"
     style="display:none">
    <g
       style="font-size:12px;font-style:normal;font-weight:normal;line-height:125%;letter-spacing:0px;word-spacing:0px;fill:#000000;fill-opacity:1;stroke:none;font-family:Sans;-inkscape-font-specification:Sans"
       id="text2985">
      <path
         d="m 60.635306,991.94531 0.721466,1.13269 c 0,0 -33.865411,9.7838 -41.750333,22.214 -6.264927,9.8763 -2.596574,29.5446 -2.596574,29.5446 l -4.918869,2.8571 -7.8668031,-23.5291 -2.3828716,0.8579 -0.56586,-1.8822 5.3948212,-1.8681 5.1042155,15.4574 c 0,0 -1.443244,-14.3885 5.617709,-23.8034 10.147294,-13.52998 43.243099,-20.98089 43.243099,-20.98089 z"
         style="font-size:32px;font-variant:normal;font-stretch:normal;text-align:start;writing-mode:lr-tb;text-anchor:start;font-family:Serif;-inkscape-font-specification:Serif"
         id="path2990"
         inkscape:connector-curvature="0"
         sodipodi:nodetypes="ccscccccccsc" />
    </g>
  </g>
  <g
     inkscape:groupmode="layer"
     id="layer2"
     inkscape:label="angle">
    <path
       sodipodi:type="arc"
       style="fill:#009bff;fill-opacity:1;stroke:none"
       id="path3811"
       sodipodi:cx="23.549181"
       sodipodi:cy="44.049488"
       sodipodi:rx="2.841054"
       sodipodi:ry="11.364216"
       d="m 26.390235,44.049488 a 2.841054,11.364216 0 1 1 -5.682108,0 2.841054,11.364216 0 1 1 5.682108,0 z"
       transform="matrix(-4.0754424,0,0,1.6560067,143.93777,-37.950256)" />
    <path
       transform="matrix(-2.7339303,0,0,1.1549,115.36912,-15.758371)"
       d="m 26.390235,44.049488 a 2.841054,11.364216 0 1 1 -5.682108,0 2.841054,11.364216 0 1 1 5.682108,0 z"
       sodipodi:ry="11.364216"
       sodipodi:rx="2.841054"
       sodipodi:cy="44.049488"
       sodipodi:cx="23.549181"
       id="path3813"
       style="fill:#000000;fill-opacity:1;stroke:none"
       sodipodi:type="arc" />
    <path
       sodipodi:type="arc"
       style="fill:#ffffff;fill-opacity:1;stroke:none"
       id="path3868"
       sodipodi:cx="37.94643"
       sodipodi:cy="29.714285"
       sodipodi:rx="3.5714285"
       sodipodi:ry="3.5714285"
       d="m 41.517859,29.714285 a 3.5714285,3.5714285 0 1 1 -7.142857,0 3.5714285,3.5714285 0 1 1 7.142857,0 z"
       transform="matrix(1.3258971,0,0,1.3258971,-5.3111943,-10.914161)" />
    <path
       style="fill:none;stroke:none"
       d="M 64.5886,-4.8071085 -1.2195513,34.462018 59.518135,70.926206 62.323074,65.855742 10.647493,36.511779 68.796007,2.0973533 z"
       id="path3001"
       inkscape:connector-curvature="0" />
    <path
       style="fill:#000000;fill-opacity:1;stroke:none"
       d="M 58.010658,0.66939719 0.88999171,34.601134 47.54877,63.485021 50.612012,58.110837 12.157843,34.677783 60.96602,5.9044646 z"
       id="path3771"
       inkscape:connector-curvature="0"
       sodipodi:nodetypes="ccccccc" />
  </g>
  <g
     inkscape:groupmode="layer"
     id="layer3"
     inkscape:label="Layer"
     style="display:none" />
</svg>
